<?xml version="1.0" encoding="UTF-8" standalone="no"?>
<svg width="120px" height="120px" viewBox="0 0 492.5 492.5" version="1.1" xmlns="http://www.w3.org/2000/svg" xmlns:xlink="http://www.w3.org/1999/xlink">
  <path d="M82.75 0c-34.4 0-62.4 28-62.4 62.4s28 62.4 62.4 62.4 62.4-28 62.4-62.4S117.15 0 82.75 0zm0 105.1c-23.5 0-42.6-19.1-42.6-42.6s19.1-42.6 42.6-42.6 42.6 19.1 42.6 42.6-19.1 42.6-42.6 42.6z" fill="#2C2F33"/>
  <path d="M82.75 183.9c-34.4 0-62.4 28-62.4 62.4s28 62.4 62.4 62.4 62.4-28 62.4-62.4-28-62.4-62.4-62.4zm0 105c-23.5 0-42.6-19.1-42.6-42.6s19.1-42.6 42.6-42.6 42.6 19.1 42.6 42.6-19.1 42.6-42.6 42.6z" fill="#3C92CA"/>
  <path d="M82.75 367.7c-34.4 0-62.4 28-62.4 62.4s28 62.4 62.4 62.4 62.4-28 62.4-62.4-28-62.4-62.4-62.4zm0 105.1c-23.5 0-42.6-19.1-42.6-42.6s19.1-42.6 42.6-42.6 42.6 19.1 42.6 42.6c0 23.4-19.1 42.6-42.6 42.6zm389.4-413.7c0-5.5-4.4-9.9-9.9-9.9h-250c-5.5 0-9.9 4.4-9.9 9.9s4.4 9.9 9.9 9.9h250c5.5 0 9.9-4.4 9.9-9.9z" fill="#2C2F33"/>
  <path d="M208.85 236.4c-5.5 0-9.9 4.4-9.9 9.9s4.4 9.9 9.9 9.9h250c5.5 0 9.9-4.4 9.9-9.9s-4.4-9.9-9.9-9.9h-250z" fill="#3C92CA"/>
  <path d="M468.75 430.1c0-5.5-4.4-9.9-9.9-9.9h-250c-5.5 0-9.9 4.4-9.9 9.9s4.4 9.9 9.9 9.9h250c5.5 0 9.9-4.4 9.9-9.9z" fill="#2C2F33"/>
</svg>